monospace.ufo
<glyph name="exclam" format="1">
  <advance width="545"/>
  <unicode hex="0021"/>
  <outline>
    <contour>
      <point x="313" y="116" type="line"/>
      <point x="230" y="116" type="line"/>
      <point x="230" y="0" type="line"/>
      <point x="313" y="0" type="line"/>
    </contour>
    <contour>
      <point x="230" y="690" type="line"/>
      <point x="237" y="244" type="line"/>
      <point x="307" y="244" type="line"/>
      <point x="314" y="690" type="line"/>
    </contour>
  </outline>
</glyph>
<glyph name="quotedbl" format="1">
  <advance width="545"/>
  <unicode hex="0022"/>
  <outline>
    <contour>
      <point x="344" y="690" type="line"/>
      <point x="344" y="393" type="line"/>
      <point x="421" y="393" type="line"/>
      <point x="428" y="690" type="line"/>
    </contour>
    <contour>
      <point x="119" y="690" type="line"/>
      <point x="126" y="393" type="line"/>
      <point x="203" y="393" type="line"/>
      <point x="203" y="690" type="line"/>
    </contour>
  </outline>
</glyph>
<glyph name="numbersign" format="1">
  <advance width="545"/>
  <unicode hex="0023"/>
  <outline>
    <contour>
      <point x="250" y="498" type="line"/>
      <point x="210" y="0" type="line"/>
      <point x="140" y="0" type="line"/>
      <point x="180" y="498" type="line"/>
    </contour>
    <contour>
      <point x="406" y="498" type="line"/>
      <point x="366" y="0" type="line"/>
      <point x="296" y="0" type="line"/>
      <point x="336" y="498" type="line"/>
    </contour>
    <contour>
      <point x="496" y="303" type="line"/>
      <point x="90" y="303" type="line"/>
      <point x="90" y="363" type="line"/>
      <point x="496" y="363" type="line"/>
    </contour>
    <contour>
      <point x="456" y="147" type="line"/>
      <point x="50" y="147" type="line"/>
      <point x="50" y="207" type="line"/>
      <point x="456" y="207" type="line"/>
    </contour>
  </outline>
</glyph>
<glyph name="percent" format="1">
  <advance width="545"/>
  <unicode hex="0025"/>
  <outline>
    <contour>
      <point x="410" y="248" type="curve" smooth="yes"/>
      <point x="325" y="248"/>
      <point x="299" y="193"/>
      <point x="299" y="123" type="curve" smooth="yes"/>
      <point x="299" y="54"/>
      <point x="325" y="-5"/>
      <point x="410" y="-5" type="curve" smooth="yes"/>
      <point x="494" y="-5"/>
      <point x="525" y="54"/>
      <point x="525" y="123" type="curve" smooth="yes"/>
      <point x="525" y="193"/>
      <point x="494" y="248"/>
    </contour>
    <contour>
      <point x="411" y="199" type="curve" smooth="yes"/>
      <point x="464" y="199"/>
      <point x="472" y="162"/>
      <point x="472" y="123" type="curve" smooth="yes"/>
      <point x="472" y="84"/>
      <point x="464" y="45"/>
      <point x="411" y="45" type="curve" smooth="yes"/>
      <point x="358" y="45"/>
      <point x="353" y="84"/>
      <point x="353" y="123" type="curve" smooth="yes"/>
      <point x="353" y="162"/>
      <point x="358" y="199"/>
    </contour>
    <contour>
      <point x="132" y="695" type="curve" smooth="yes"/>
      <point x="47" y="695"/>
      <point x="21" y="640"/>
      <point x="21" y="570" type="curve" smooth="yes"/>
      <point x="21" y="501"/>
      <point x="47" y="442"/>
      <point x="132" y="442" type="curve" smooth="yes"/>
      <point x="216" y="442"/>
      <point x="247" y="501"/>
      <point x="247" y="570" type="curve" smooth="yes"/>
      <point x="247" y="640"/>
      <point x="216" y="695"/>
    </contour>
    <contour>
      <point x="133" y="646" type="curve" smooth="yes"/>
      <point x="186" y="646"/>
      <point x="194" y="609"/>
      <point x="194" y="570" type="curve" smooth="yes"/>
      <point x="194" y="531"/>
      <point x="186" y="492"/>
      <point x="133" y="492" type="curve" smooth="yes"/>
      <point x="80" y="492"/>
      <point x="75" y="531"/>
      <point x="75" y="570" type="curve" smooth="yes"/>
      <point x="75" y="609"/>
      <point x="80" y="646"/>
    </contour>
    <contour>
      <point x="517" y="695" type="line"/>
      <point x="120" y="1" type="line"/>
      <point x="30" y="1" type="line"/>
      <point x="426" y="695" type="line"/>
    </contour>
  </outline>
</glyph>
<glyph name="ampersand" format="1">
  <advance width="545"/>
  <unicode hex="0026"/>
  <outline>
    <contour>
      <point x="545.0" y="0.0" type="line"/>
      <point x="220.0" y="434.0" type="line"/>
      <point x="220.0" y="434.0"/>
      <point x="174.0" y="488.0"/>
      <point x="174.0" y="536.0" type="curve" smooth="yes"/>
      <point x="174.0" y="584.0"/>
      <point x="202" y="624"/>
      <point x="246" y="624" type="curve" smooth="yes"/>
      <point x="290" y="624"/>
      <point x="331.0" y="603.0"/>
      <point x="331.0" y="541.0" type="curve" smooth="yes"/>
      <point x="331.0" y="484.0"/>
      <point x="267.0" y="450.0"/>
      <point x="267.0" y="450.0" type="curve"/>
      <point x="137.0" y="375.0" type="line"/>
      <point x="137.0" y="375.0"/>
      <point x="31.0" y="315.0"/>
      <point x="31.0" y="178.0" type="curve" smooth="yes"/>
      <point x="31.0" y="90.0"/>
      <point x="73.0" y="-6.0"/>
      <point x="220.0" y="-6.0" type="curve" smooth="yes"/>
      <point x="408.0" y="-6.0"/>
      <point x="487.0" y="172.0"/>
      <point x="487.0" y="263.0" type="curve"/>
      <point x="403.0" y="263.0" type="line"/>
      <point x="403.0" y="263.0"/>
      <point x="397.0" y="66.0"/>
      <point x="217.0" y="66.0" type="curve"/>
      <point x="217.0" y="66.0"/>
      <point x="112.0" y="64.0"/>
      <point x="112.0" y="182.0" type="curve" smooth="yes"/>
      <point x="112.0" y="281.0"/>
      <point x="191.0" y="327.0"/>
      <point x="191.0" y="327.0" type="curve"/>
      <point x="321.0" y="403.0" type="line"/>
      <point x="321.0" y="403.0"/>
      <point x="411.0" y="453.0"/>
      <point x="411.0" y="541.0" type="curve" smooth="yes"/>
      <point x="411.0" y="620.0"/>
      <point x="367" y="695"/>
      <point x="251" y="695" type="curve" smooth="yes"/>
      <point x="153" y="695"/>
      <point x="83.0" y="632.0"/>
      <point x="83.0" y="532.0" type="curve" smooth="yes"/>
      <point x="83.0" y="455.0"/>
      <point x="149.0" y="382.0"/>
      <point x="149.0" y="382.0" type="curve"/>
      <point x="431.0" y="0.0" type="line"/>
    </contour>
  </outline>
</glyph>
<glyph name="asterisk" format="1">
  <advance width="545"/>
  <unicode hex="002A"/>
  <outline>
    <contour>
      <point x="377" y="447" type="line"/>
      <point x="193" y="320" type="line"/>
      <point x="216" y="286" type="line"/>
      <point x="403" y="408" type="line"/>
    </contour>
    <contour>
      <point x="351" y="377" type="line"/>
      <point x="328" y="411" type="line"/>
      <point x="141" y="289" type="line"/>
      <point x="167" y="250" type="line"/>
    </contour>
    <contour>
      <point x="377" y="447" type="line"/>
      <point x="193" y="320" type="line"/>
      <point x="216" y="286" type="line"/>
      <point x="403" y="408" type="line"/>
    </contour>
    <contour>
      <point x="351" y="377" type="line"/>
      <point x="328" y="411" type="line"/>
      <point x="141" y="289" type="line"/>
      <point x="167" y="250" type="line"/>
    </contour>
    <contour>
      <point x="141" y="408" type="line"/>
      <point x="328" y="287" type="line"/>
      <point x="351" y="321" type="line"/>
      <point x="167" y="447" type="line"/>
    </contour>
    <contour>
      <point x="141" y="408" type="line"/>
      <point x="328" y="287" type="line"/>
      <point x="351" y="321" type="line"/>
      <point x="167" y="447" type="line"/>
    </contour>
    <contour>
      <point x="216" y="410" type="line"/>
      <point x="193" y="376" type="line"/>
      <point x="377" y="250" type="line"/>
      <point x="403" y="289" type="line"/>
    </contour>
    <contour>
      <point x="216" y="410" type="line"/>
      <point x="193" y="376" type="line"/>
      <point x="377" y="250" type="line"/>
      <point x="403" y="289" type="line"/>
    </contour>
    <contour>
      <point x="248" y="490" type="line"/>
      <point x="252" y="267" type="line"/>
      <point x="293" y="267" type="line"/>
      <point x="296" y="490" type="line"/>
    </contour>
    <contour>
      <point x="292" y="430" type="line"/>
      <point x="251" y="430" type="line"/>
      <point x="248" y="207" type="line"/>
      <point x="296" y="207" type="line"/>
    </contour>
    <contour>
      <point x="292" y="430" type="line"/>
      <point x="251" y="430" type="line"/>
      <point x="248" y="207" type="line"/>
      <point x="296" y="207" type="line"/>
    </contour>
    <contour>
      <point x="248" y="490" type="line"/>
      <point x="252" y="267" type="line"/>
      <point x="293" y="267" type="line"/>
      <point x="296" y="490" type="line"/>
    </contour>
  </outline>
</glyph>
<glyph name="comma" format="1">
  <advance width="545.0"/>
  <unicode hex="002C"/>
  <outline>
    <contour>
      <point x="365.0" y="129.0" type="line"/>
      <point x="236.0" y="129.0" type="line"/>
      <point x="236.0" y="0.0" type="line"/>
      <point x="182.0" y="-174.0" type="line"/>
      <point x="255.0" y="-174.0" type="line"/>
      <point x="365.0" y="0.0" type="line"/>
    </contour>
  </outline>
</glyph>
<glyph name="slash" format="1">
  <advance width="545"/>
  <unicode hex="002F"/>
  <outline>
    <contour>
      <point x="487" y="695" type="line"/>
      <point x="151" y="-98" type="line"/>
      <point x="57" y="-98" type="line"/>
      <point x="392" y="695" type="line"/>
    </contour>
  </outline>
</glyph>
<glyph name="zero" format="1">
  <advance width="545"/>
  <unicode hex="0030"/>
  <outline>
    <contour>
      <point x="272" y="64" type="curve" smooth="yes"/>
      <point x="154" y="64"/>
      <point x="131" y="211"/>
      <point x="131" y="319" type="curve" smooth="yes"/>
      <point x="131" y="418"/>
      <point x="161" y="576"/>
      <point x="272" y="576" type="curve" smooth="yes"/>
      <point x="383" y="576"/>
      <point x="413" y="418"/>
      <point x="413" y="319" type="curve" smooth="yes"/>
      <point x="413" y="214"/>
      <point x="390" y="64"/>
    </contour>
    <contour>
      <point x="81" y="180" type="line"/>
      <point x="131" y="130" type="line"/>
      <point x="462" y="460" type="line"/>
      <point x="412" y="510" type="line"/>
    </contour>
    <contour>
      <point x="272" y="646" type="curve" smooth="yes"/>
      <point x="103" y="646"/>
      <point x="46" y="490"/>
      <point x="46" y="319" type="curve" smooth="yes"/>
      <point x="46" y="150"/>
      <point x="96" y="-6"/>
      <point x="272" y="-6" type="curve" smooth="yes"/>
      <point x="448" y="-6"/>
      <point x="499" y="156"/>
      <point x="499" y="319" type="curve" smooth="yes"/>
      <point x="499" y="490"/>
      <point x="441" y="646"/>
    </contour>
  </outline>
</glyph>
<glyph name="one" format="1">
  <advance width="545"/>
  <unicode hex="0031"/>
  <outline>
    <contour>
      <point x="321" y="71" type="line"/>
      <point x="321" y="640" type="line"/>
      <point x="224" y="640" type="line"/>
      <point x="111" y="612" type="line"/>
      <point x="111" y="541" type="line"/>
      <point x="224" y="555" type="line"/>
      <point x="224" y="71" type="line"/>
      <point x="70" y="71" type="line"/>
      <point x="70" y="0" type="line"/>
      <point x="476" y="0" type="line"/>
      <point x="476" y="71" type="line"/>
    </contour>
  </outline>
</glyph>
<glyph name="seven" format="1">
  <advance width="545"/>
  <unicode hex="0037"/>
  <outline>
    <contour>
      <point x="120" y="0" type="move"/>
      <point x="388" y="551" type="line"/>
      <point x="53" y="551" type="line"/>
      <point x="53" y="640" type="line"/>
      <point x="485" y="640" type="line"/>
      <point x="485" y="550" type="line" smooth="yes"/>
      <point x="228" y="0" type="line"/>
    </contour>
  </outline>
</glyph>
<glyph name="semicolon" format="1">
  <advance width="545"/>
  <unicode hex="003B"/>
  <outline>
    <contour>
      <point x="366" y="490" type="line"/>
      <point x="236" y="490" type="line"/>
      <point x="236" y="324" type="line"/>
      <point x="366" y="324" type="line"/>
    </contour>
    <contour>
      <point x="366" y="166" type="line"/>
      <point x="237" y="166" type="line"/>
      <point x="237" y="37" type="line"/>
      <point x="183" y="-137" type="line"/>
      <point x="256" y="-137" type="line"/>
      <point x="366" y="37" type="line"/>
    </contour>
  </outline>
</glyph>
<glyph name="less" format="1">
  <advance width="545"/>
  <unicode hex="003C"/>
  <outline>
    <contour>
      <point x="470" y="499" type="line"/>
      <point x="74" y="300" type="line"/>
      <point x="74" y="300"/>
      <point x="74" y="194"/>
      <point x="74" y="194" type="curve"/>
      <point x="470" y="-6" type="line"/>
      <point x="470" y="96" type="line"/>
      <point x="162" y="248" type="line"/>
      <point x="470" y="397" type="line"/>
    </contour>
  </outline>
</glyph>
<glyph name="equal" format="1">
  <advance width="545"/>
  <unicode hex="003D"/>
  <outline>
    <contour>
      <point x="476" y="174" type="line"/>
      <point x="67" y="174" type="line"/>
      <point x="67" y="244" type="line"/>
      <point x="476" y="244" type="line"/>
    </contour>
    <contour>
      <point x="475" y="323" type="line"/>
      <point x="67" y="323" type="line"/>
      <point x="67" y="393" type="line"/>
      <point x="475" y="393" type="line"/>
    </contour>
  </outline>
</glyph>
<glyph name="greater" format="1">
  <advance width="545"/>
  <unicode hex="003E"/>
  <outline>
    <contour>
      <point x="82" y="499" type="line"/>
      <point x="82" y="397" type="line"/>
      <point x="390" y="248" type="line"/>
      <point x="82" y="96" type="line"/>
      <point x="82" y="-6" type="line"/>
      <point x="478" y="194" type="line"/>
      <point x="478" y="194"/>
      <point x="478" y="300"/>
      <point x="478" y="300" type="curve"/>
    </contour>
  </outline>
</glyph>
<glyph name="question" format="1">
  <advance width="545"/>
  <unicode hex="003F"/>
  <outline>
    <contour>
      <point x="225" y="279" type="line" smooth="yes"/>
      <point x="225" y="400"/>
      <point x="384" y="421"/>
      <point x="384" y="503" type="curve" smooth="yes"/>
      <point x="384" y="621"/>
      <point x="246" y="613"/>
      <point x="246" y="613" type="curve"/>
      <point x="155" y="613"/>
      <point x="62" y="558"/>
      <point x="62" y="558" type="curve"/>
      <point x="62" y="635" type="line"/>
      <point x="62" y="635"/>
      <point x="122" y="690"/>
      <point x="246" y="690" type="curve" smooth="yes"/>
      <point x="349" y="690"/>
      <point x="467" y="634"/>
      <point x="467" y="505" type="curve" smooth="yes"/>
      <point x="467" y="399"/>
      <point x="309" y="367"/>
      <point x="309" y="279" type="curve" smooth="yes"/>
      <point x="309" y="244" type="line"/>
      <point x="225" y="244" type="line"/>
    </contour>
    <contour>
      <point x="309" y="116" type="line"/>
      <point x="225" y="116" type="line"/>
      <point x="225" y="0" type="line"/>
      <point x="309" y="0" type="line"/>
    </contour>
  </outline>
</glyph>
<glyph name="at" format="1">
  <advance width="545"/>
  <unicode hex="0040"/>
  <outline>
    <contour>
      <point x="344" y="326" type="curve"/>
      <point x="349" y="397" type="line"/>
      <point x="349" y="397"/>
      <point x="283" y="412"/>
      <point x="207" y="412" type="curve" smooth="yes"/>
      <point x="101" y="412"/>
      <point x="12" y="371"/>
      <point x="12" y="209" type="curve" smooth="yes"/>
      <point x="12" y="47"/>
      <point x="89" y="-11"/>
      <point x="172" y="-11" type="curve" smooth="yes"/>
      <point x="277" y="-11"/>
      <point x="308" y="98"/>
      <point x="308" y="98" type="curve"/>
      <point x="291" y="140" type="line"/>
      <point x="291" y="140"/>
      <point x="252" y="51"/>
      <point x="173" y="51" type="curve" smooth="yes"/>
      <point x="122" y="51"/>
      <point x="83" y="103"/>
      <point x="83" y="206" type="curve" smooth="yes"/>
      <point x="83" y="305"/>
      <point x="124" y="341"/>
      <point x="203" y="341" type="curve" smooth="yes"/>
      <point x="271" y="341"/>
      <point x="344" y="326"/>
    </contour>
    <contour>
      <point x="268" y="95" type="line"/>
      <point x="268" y="95"/>
      <point x="274" y="-6"/>
      <point x="387" y="-6" type="curve" smooth="yes"/>
      <point x="446" y="-6"/>
      <point x="538" y="34"/>
      <point x="538" y="296" type="curve" smooth="yes"/>
      <point x="538" y="539"/>
      <point x="384" y="646"/>
      <point x="242" y="646" type="curve" smooth="yes"/>
      <point x="89" y="646"/>
      <point x="9" y="553"/>
      <point x="9" y="553" type="curve"/>
      <point x="57" y="507" type="line" smooth="yes"/>
      <point x="57" y="507"/>
      <point x="125" y="585"/>
      <point x="237" y="585" type="curve" smooth="yes"/>
      <point x="323" y="585"/>
      <point x="466" y="524"/>
      <point x="466" y="306" type="curve" smooth="yes"/>
      <point x="466" y="88"/>
      <point x="416" y="46"/>
      <point x="386" y="46" type="curve" smooth="yes"/>
      <point x="348" y="46"/>
      <point x="349" y="95"/>
      <point x="349" y="95" type="curve"/>
      <point x="349" y="397" type="line"/>
      <point x="268" y="369" type="line"/>
    </contour>
  </outline>
</glyph>
<glyph name="B" format="1">
  <advance width="545"/>
  <unicode hex="0042"/>
  <outline>
    <contour>
      <point x="250" y="571" type="curve" smooth="yes"/>
      <point x="355" y="571"/>
      <point x="384" y="528"/>
      <point x="384" y="474" type="curve" smooth="yes"/>
      <point x="384" y="396"/>
      <point x="348" y="361"/>
      <point x="280" y="361" type="curve" smooth="yes"/>
      <point x="243" y="361"/>
      <point x="182" y="361"/>
      <point x="160" y="361" type="curve"/>
      <point x="160" y="571" type="line"/>
      <point x="178" y="571"/>
      <point x="222" y="571"/>
    </contour>
    <contour>
      <point x="268" y="71" type="curve" smooth="yes"/>
      <point x="232" y="71"/>
      <point x="169" y="71"/>
      <point x="160" y="71" type="curve"/>
      <point x="160" y="293" type="line"/>
      <point x="169" y="293"/>
      <point x="240" y="293"/>
      <point x="286" y="293" type="curve" smooth="yes"/>
      <point x="360" y="293"/>
      <point x="406" y="243"/>
      <point x="406" y="180" type="curve" smooth="yes"/>
      <point x="406" y="112"/>
      <point x="371" y="71"/>
    </contour>
    <contour>
      <point x="357" y="332" type="curve"/>
      <point x="431" y="332"/>
      <point x="464" y="411"/>
      <point x="464" y="468" type="curve" smooth="yes"/>
      <point x="464" y="585"/>
      <point x="393" y="638"/>
      <point x="289" y="638" type="curve" smooth="yes"/>
      <point x="287" y="638"/>
      <point x="64" y="638"/>
      <point x="64" y="638" type="curve"/>
      <point x="64" y="332" type="line"/>
      <point x="64" y="330" type="line"/>
      <point x="64" y="0" type="line"/>
      <point x="64" y="0"/>
      <point x="271" y="0"/>
      <point x="306" y="0" type="curve" smooth="yes"/>
      <point x="417" y="0"/>
      <point x="494" y="71"/>
      <point x="494" y="183" type="curve" smooth="yes"/>
      <point x="494" y="254"/>
      <point x="438" y="332"/>
    </contour>
  </outline>
</glyph>
<glyph name="C" format="1">
  <advance width="545"/>
  <unicode hex="0043"/>
  <outline>
    <contour>
      <point x="300" y="571" type="curve" smooth="yes"/>
      <point x="404" y="571"/>
      <point x="487" y="540"/>
      <point x="487" y="540" type="curve"/>
      <point x="487" y="609" type="line"/>
      <point x="487" y="609"/>
      <point x="423" y="646"/>
      <point x="292" y="646" type="curve" smooth="yes"/>
      <point x="102" y="646"/>
      <point x="37" y="449"/>
      <point x="37" y="319" type="curve" smooth="yes"/>
      <point x="37" y="189"/>
      <point x="102" y="-6"/>
      <point x="292" y="-6" type="curve" smooth="yes"/>
      <point x="423" y="-6"/>
      <point x="487" y="31"/>
      <point x="487" y="31" type="curve"/>
      <point x="487" y="114" type="line"/>
      <point x="487" y="114"/>
      <point x="414" y="72"/>
      <point x="306" y="72" type="curve" smooth="yes"/>
      <point x="198" y="72"/>
      <point x="139" y="198"/>
      <point x="139" y="319" type="curve" smooth="yes"/>
      <point x="139" y="443"/>
      <point x="183" y="571"/>
    </contour>
  </outline>
</glyph>
<glyph name="E" format="1">
  <advance width="545"/>
  <unicode hex="0045"/>
  <outline>
    <contour>
      <point x="370" y="292" type="line"/>
      <point x="70" y="292" type="line"/>
      <point x="70" y="362" type="line"/>
      <point x="370" y="362" type="line"/>
    </contour>
    <contour>
      <point x="476" y="0" type="line"/>
      <point x="70" y="0" type="line"/>
      <point x="70" y="70" type="line"/>
      <point x="476" y="70" type="line"/>
    </contour>
    <contour>
      <point x="165" y="0" type="line"/>
      <point x="70" y="0" type="line"/>
      <point x="70" y="637" type="line"/>
      <point x="165" y="637" type="line"/>
    </contour>
    <contour>
      <point x="476" y="570" type="line"/>
      <point x="70" y="570" type="line"/>
      <point x="70" y="640" type="line"/>
      <point x="476" y="640" type="line"/>
    </contour>
  </outline>
</glyph>
<glyph name="K" format="1">
  <advance width="545"/>
  <unicode hex="004B"/>
  <outline>
    <contour>
      <point x="394" y="0" type="line"/>
      <point x="507" y="0" type="line"/>
      <point x="239" y="338" type="line"/>
      <point x="490" y="640" type="line"/>
      <point x="387" y="640" type="line"/>
      <point x="163" y="358" type="line"/>
      <point x="163" y="639" type="line"/>
      <point x="68" y="639" type="line"/>
      <point x="68" y="0" type="line"/>
      <point x="163" y="0" type="line"/>
      <point x="163" y="246" type="line"/>
      <point x="187" y="275" type="line"/>
    </contour>
  </outline>
</glyph>
<glyph name="L" format="1">
  <advance width="545"/>
  <unicode hex="004C"/>
  <outline>
    <contour>
      <point x="476" y="0" type="line"/>
      <point x="70" y="0" type="line"/>
      <point x="70" y="71" type="line"/>
      <point x="476" y="71" type="line"/>
    </contour>
    <contour>
      <point x="167" y="0" type="line"/>
      <point x="70" y="0" type="line"/>
      <point x="70" y="640" type="line"/>
      <point x="167" y="640" type="line"/>
    </contour>
  </outline>
</glyph>
<glyph name="M" format="1">
  <advance width="545"/>
  <unicode hex="004D"/>
  <outline>
    <contour>
      <point x="142" y="0" type="line"/>
      <point x="142" y="640" type="line"/>
      <point x="50" y="640" type="line"/>
      <point x="50" y="0" type="line"/>
    </contour>
    <contour>
      <point x="312" y="222" type="line"/>
      <point x="142" y="639" type="line"/>
      <point x="97" y="577" type="line"/>
      <point x="234" y="222" type="line"/>
    </contour>
    <contour>
      <point x="449" y="577" type="line"/>
      <point x="404" y="640" type="line"/>
      <point x="234" y="222" type="line"/>
      <point x="312" y="222" type="line"/>
    </contour>
    <contour>
      <point x="403" y="640" type="line"/>
      <point x="403" y="0" type="line"/>
      <point x="495" y="0" type="line"/>
      <point x="495" y="640" type="line"/>
    </contour>
  </outline>
</glyph>
<glyph name="O" format="1">
  <advance width="545"/>
  <unicode hex="004F"/>
  <outline>
    <contour>
      <point x="271" y="72" type="curve" smooth="yes"/>
      <point x="138" y="72"/>
      <point x="107" y="211"/>
      <point x="107" y="319" type="curve" smooth="yes"/>
      <point x="107" y="418"/>
      <point x="146" y="568"/>
      <point x="271" y="568" type="curve" smooth="yes"/>
      <point x="396" y="568"/>
      <point x="435" y="418"/>
      <point x="435" y="319" type="curve" smooth="yes"/>
      <point x="435" y="214"/>
      <point x="404" y="72"/>
    </contour>
    <contour>
      <point x="271" y="646" type="curve" smooth="yes"/>
      <point x="81" y="646"/>
      <point x="16" y="449"/>
      <point x="16" y="319" type="curve" smooth="yes"/>
      <point x="16" y="179"/>
      <point x="73" y="-6"/>
      <point x="271" y="-6" type="curve" smooth="yes"/>
      <point x="469" y="-6"/>
      <point x="526" y="182"/>
      <point x="526" y="319" type="curve" smooth="yes"/>
      <point x="526" y="449"/>
      <point x="461" y="646"/>
    </contour>
  </outline>
</glyph>
<glyph name="P" format="1">
  <advance width="545"/>
  <unicode hex="0050"/>
  <outline>
    <contour>
      <point x="157" y="306" type="curve"/>
      <point x="157" y="561" type="line"/>
      <point x="330" y="561"/>
      <point x="394" y="556"/>
      <point x="394" y="439" type="curve" smooth="yes"/>
      <point x="394" y="322"/>
      <point x="357" y="306"/>
    </contour>
    <contour>
      <point x="485" y="442" type="curve" smooth="yes"/>
      <point x="485" y="613"/>
      <point x="381" y="635"/>
      <point x="157" y="637" type="curve"/>
      <point x="157" y="637" type="line"/>
      <point x="62" y="637" type="line"/>
      <point x="62" y="0" type="line"/>
      <point x="157" y="0" type="line"/>
      <point x="157" y="230" type="line"/>
      <point x="417" y="233"/>
      <point x="485" y="270"/>
    </contour>
  </outline>
</glyph>
<glyph name="S" format="1">
  <advance width="545"/>
  <unicode hex="0053"/>
  <outline>
    <contour>
      <point x="490" y="177" type="curve" smooth="yes"/>
      <point x="490" y="3"/>
      <point x="345" y="-6"/>
      <point x="241" y="-6" type="curve" smooth="yes"/>
      <point x="137" y="-6"/>
      <point x="92" y="14"/>
      <point x="57" y="24" type="curve"/>
      <point x="57" y="112" type="line"/>
      <point x="57" y="112"/>
      <point x="156" y="75"/>
      <point x="243" y="75" type="curve" smooth="yes"/>
      <point x="313" y="75"/>
      <point x="404" y="89"/>
      <point x="404" y="174" type="curve" smooth="yes"/>
      <point x="404" y="296"/>
      <point x="65" y="262"/>
      <point x="65" y="478" type="curve" smooth="yes"/>
      <point x="65" y="569"/>
      <point x="137" y="642"/>
      <point x="266" y="642" type="curve" smooth="yes"/>
      <point x="367" y="642"/>
      <point x="450" y="607"/>
      <point x="450" y="607" type="curve"/>
      <point x="450" y="526" type="line"/>
      <point x="450" y="526"/>
      <point x="356" y="561"/>
      <point x="276" y="561" type="curve" smooth="yes"/>
      <point x="180" y="561"/>
      <point x="154" y="525"/>
      <point x="154" y="466" type="curve" smooth="yes"/>
      <point x="154" y="351"/>
      <point x="490" y="364"/>
    </contour>
  </outline>
</glyph>
<glyph name="T" format="1">
  <advance width="545"/>
  <unicode hex="0054"/>
  <outline>
    <contour>
      <point x="485" y="639" type="line"/>
      <point x="79" y="639" type="line"/>
      <point x="79" y="568" type="line"/>
      <point x="234" y="568" type="line"/>
      <point x="234" y="1" type="line"/>
      <point x="331" y="1" type="line"/>
      <point x="331" y="568" type="line"/>
      <point x="485" y="568" type="line"/>
    </contour>
  </outline>
</glyph>
<glyph name="U" format="1">
  <advance width="545"/>
  <unicode hex="0055"/>
  <outline>
    <contour>
      <point x="506" y="640" type="line"/>
      <point x="415" y="640" type="line"/>
      <point x="415" y="249" type="line" smooth="yes"/>
      <point x="415" y="144"/>
      <point x="386" y="68"/>
      <point x="271" y="68" type="curve" smooth="yes"/>
      <point x="156" y="68"/>
      <point x="127" y="141"/>
      <point x="127" y="249" type="curve" smooth="yes"/>
      <point x="127" y="640" type="line"/>
      <point x="36" y="640" type="line"/>
      <point x="36" y="249" type="line" smooth="yes"/>
      <point x="36" y="109"/>
      <point x="93" y="-6"/>
      <point x="271" y="-6" type="curve" smooth="yes"/>
      <point x="449" y="-6"/>
      <point x="506" y="112"/>
      <point x="506" y="249" type="curve" smooth="yes"/>
    </contour>
  </outline>
</glyph>
<glyph name="W" format="1">
  <advance width="545"/>
  <unicode hex="0057"/>
  <outline>
    <contour>
      <point x="475" y="640" type="line"/>
      <point x="393" y="135" type="line"/>
      <point x="320" y="361" type="line"/>
      <point x="320" y="361"/>
      <point x="241" y="361"/>
      <point x="241" y="361" type="curve"/>
      <point x="164" y="127" type="line"/>
      <point x="69" y="640" type="line"/>
      <point x="-10" y="640" type="line"/>
      <point x="116" y="0" type="line"/>
      <point x="123" y="0" type="line"/>
      <point x="188" y="0" type="line"/>
      <point x="189" y="0" type="line"/>
      <point x="280" y="260" type="line"/>
      <point x="370" y="0" type="line"/>
      <point x="371" y="0" type="line"/>
      <point x="436" y="0" type="line"/>
      <point x="443" y="0" type="line"/>
      <point x="554" y="640" type="line"/>
    </contour>
  </outline>
</glyph>
<glyph name="X" format="1">
  <advance width="545"/>
  <unicode hex="0058"/>
  <outline>
    <contour>
      <point x="522" y="640" type="line"/>
      <point x="421" y="640" type="line"/>
      <point x="275" y="392" type="line"/>
      <point x="125" y="640" type="line"/>
      <point x="24" y="640" type="line"/>
      <point x="227" y="320" type="line"/>
      <point x="24" y="0" type="line"/>
      <point x="125" y="0" type="line"/>
      <point x="275" y="248" type="line"/>
      <point x="421" y="0" type="line"/>
      <point x="522" y="0" type="line"/>
      <point x="324" y="320" type="line"/>
    </contour>
  </outline>
</glyph>
<glyph name="Y" format="1">
  <advance width="545"/>
  <unicode hex="0059"/>
  <outline>
    <contour>
      <point x="432" y="640" type="line"/>
      <point x="268" y="361" type="line"/>
      <point x="285" y="361" type="line"/>
      <point x="116" y="640" type="line"/>
      <point x="25" y="640" type="line"/>
      <point x="239" y="302" type="line"/>
      <point x="230" y="339" type="line"/>
      <point x="230" y="0" type="line"/>
      <point x="323" y="0" type="line"/>
      <point x="323" y="342" type="line"/>
      <point x="316" y="304" type="line"/>
      <point x="523" y="640" type="line"/>
    </contour>
  </outline>
</glyph>
<glyph name="bracketright" format="1">
  <advance width="545"/>
  <unicode hex="005D"/>
  <outline>
    <contour>
      <point x="156" y="-202" type="line"/>
      <point x="156" y="-134" type="line"/>
      <point x="312" y="-134" type="line"/>
      <point x="312" y="623" type="line"/>
      <point x="156" y="623" type="line"/>
      <point x="156" y="690" type="line"/>
      <point x="392" y="690" type="line"/>
      <point x="392" y="-202" type="line"/>
    </contour>
  </outline>
</glyph>
<glyph name="a" format="1">
  <advance width="545"/>
  <unicode hex="0061"/>
  <outline>
    <contour>
      <point x="407.0" y="303.0" type="curve"/>
      <point x="406.0" y="251.0" type="line"/>
      <point x="371.0" y="251.0"/>
      <point x="157.0" y="272.0"/>
      <point x="157.0" y="153.0" type="curve" smooth="yes"/>
      <point x="157.0" y="76.0"/>
      <point x="204.0" y="58.0"/>
      <point x="255.0" y="58.0" type="curve" smooth="yes"/>
      <point x="327.0" y="58.0"/>
      <point x="409.0" y="113.0"/>
      <point x="409.0" y="113.0" type="curve"/>
      <point x="429.0" y="56.0" type="line"/>
      <point x="429.0" y="56.0"/>
      <point x="359.0" y="-5.0"/>
      <point x="227.0" y="-5.0" type="curve" smooth="yes"/>
      <point x="139.0" y="-5.0"/>
      <point x="78.0" y="54.0"/>
      <point x="78.0" y="133.0" type="curve" smooth="yes"/>
      <point x="78.0" y="357.0"/>
      <point x="343.0" y="303.0"/>
    </contour>
    <contour>
      <point x="98.0" y="434.0" type="line"/>
      <point x="98.0" y="434.0"/>
      <point x="187.0" y="500.0"/>
      <point x="280.0" y="500.0" type="curve" smooth="yes"/>
      <point x="380.0" y="500.0"/>
      <point x="483.0" y="463.0"/>
      <point x="483.0" y="322.0" type="curve" smooth="yes"/>
      <point x="483.0" y="201.0"/>
      <point x="483.0" y="1.0"/>
      <point x="483.0" y="1.0" type="curve"/>
      <point x="398.0" y="1.0" type="line"/>
      <point x="398.0" y="1.0"/>
      <point x="398.0" y="262.0"/>
      <point x="398.0" y="319.0" type="curve" smooth="yes"/>
      <point x="398.0" y="408.0"/>
      <point x="340.0" y="433.0"/>
      <point x="276.0" y="433.0" type="curve" smooth="yes"/>
      <point x="183.0" y="433.0"/>
      <point x="135.0" y="380.0"/>
      <point x="135.0" y="380.0" type="curve"/>
    </contour>
  </outline>
</glyph>
<glyph name="b" format="1">
  <advance width="545"/>
  <unicode hex="0062"/>
  <outline>
    <contour>
      <point x="103.0" y="86.0" type="line"/>
      <point x="103.0" y="86.0"/>
      <point x="186.0" y="60.0"/>
      <point x="274.0" y="60.0" type="curve" smooth="yes"/>
      <point x="375.0" y="60.0"/>
      <point x="426.0" y="107.0"/>
      <point x="426.0" y="234.0" type="curve" smooth="yes"/>
      <point x="426.0" y="363.0"/>
      <point x="385.0" y="422.0"/>
      <point x="317.0" y="422.0" type="curve" smooth="yes"/>
      <point x="219.0" y="422.0"/>
      <point x="168.0" y="308.0"/>
      <point x="168.0" y="308.0" type="curve"/>
      <point x="159.0" y="369.0" type="line"/>
      <point x="159.0" y="369.0"/>
      <point x="235.0" y="499.0"/>
      <point x="328.0" y="499.0" type="curve" smooth="yes"/>
      <point x="428.0" y="499.0"/>
      <point x="509.0" y="430.0"/>
      <point x="509.0" y="237.0" type="curve" smooth="yes"/>
      <point x="509.0" y="44.0"/>
      <point x="404.0" y="-6.0"/>
      <point x="278.0" y="-6.0" type="curve" smooth="yes"/>
      <point x="187.0" y="-6.0"/>
      <point x="103.0" y="13.0"/>
      <point x="103.0" y="13.0" type="curve"/>
    </contour>
    <contour>
      <point x="103.0" y="690.0" type="line"/>
      <point x="187.0" y="690.0" type="line"/>
      <point x="187.0" y="13.0" type="line"/>
      <point x="103.0" y="13.0" type="line"/>
    </contour>
  </outline>
</glyph>
<glyph name="c" format="1">
  <advance width="545"/>
  <unicode hex="0063"/>
  <outline>
    <contour>
      <point x="86.0" y="245.0" type="curve"/>
      <point x="92.0" y="88.0"/>
      <point x="145" y="-6"/>
      <point x="301.0" y="-6.0" type="curve" smooth="yes"/>
      <point x="425" y="-6"/>
      <point x="491.0" y="31.0"/>
      <point x="491.0" y="31.0" type="curve"/>
      <point x="491.0" y="108.0" type="line"/>
      <point x="491.0" y="108.0"/>
      <point x="418" y="71"/>
      <point x="327" y="71" type="curve" smooth="yes"/>
      <point x="238" y="71"/>
      <point x="180.0" y="92.0"/>
      <point x="178.0" y="245.0" type="curve" smooth="yes"/>
      <point x="180.0" y="398.0"/>
      <point x="239" y="422"/>
      <point x="328" y="422" type="curve" smooth="yes"/>
      <point x="419" y="422"/>
      <point x="492.0" y="384.0"/>
      <point x="492.0" y="384.0" type="curve"/>
      <point x="492.0" y="461.0" type="line"/>
      <point x="492.0" y="461.0"/>
      <point x="426" y="499"/>
      <point x="302.0" y="499.0" type="curve" smooth="yes"/>
      <point x="146" y="499"/>
      <point x="92.0" y="402.0"/>
    </contour>
  </outline>
</glyph>
<glyph name="d" format="1">
  <advance width="545"/>
  <unicode hex="0064"/>
  <outline>
    <contour>
      <point x="491" y="690" type="line"/>
      <point x="491" y="0" type="line"/>
      <point x="407" y="0" type="line"/>
      <point x="407" y="690" type="line"/>
    </contour>
    <contour>
      <point x="491" y="407" type="line"/>
      <point x="491" y="407"/>
      <point x="408" y="433"/>
      <point x="320" y="433" type="curve" smooth="yes"/>
      <point x="219" y="433"/>
      <point x="168" y="386"/>
      <point x="168" y="259" type="curve" smooth="yes"/>
      <point x="168" y="130"/>
      <point x="209" y="71"/>
      <point x="277" y="71" type="curve" smooth="yes"/>
      <point x="375" y="71"/>
      <point x="426" y="185"/>
      <point x="426" y="185" type="curve"/>
      <point x="435" y="124" type="line"/>
      <point x="435" y="124"/>
      <point x="370" y="-6"/>
      <point x="276" y="-6" type="curve" smooth="yes"/>
      <point x="176" y="-6"/>
      <point x="85" y="63"/>
      <point x="85" y="256" type="curve" smooth="yes"/>
      <point x="85" y="449"/>
      <point x="190" y="499"/>
      <point x="316" y="499" type="curve" smooth="yes"/>
      <point x="407" y="499"/>
      <point x="491" y="480"/>
      <point x="491" y="480" type="curve"/>
    </contour>
  </outline>
</glyph>
<glyph name="e" format="1">
  <advance width="545"/>
  <unicode hex="0065"/>
  <outline>
    <contour>
      <point x="296.0" y="499.0" type="curve" smooth="yes"/>
      <point x="133" y="499"/>
      <point x="58.0" y="404.0"/>
      <point x="58.0" y="245.0" type="curve" smooth="yes"/>
      <point x="58.0" y="106.0"/>
      <point x="103" y="-6"/>
      <point x="296.0" y="-6.0" type="curve" smooth="yes"/>
      <point x="439" y="-6"/>
      <point x="488.0" y="40.0"/>
      <point x="488.0" y="40.0" type="curve"/>
      <point x="488.0" y="122.0" type="line"/>
      <point x="488.0" y="122.0"/>
      <point x="413" y="66"/>
      <point x="296.0" y="66.0" type="curve" smooth="yes"/>
      <point x="183" y="66"/>
      <point x="149.0" y="131.0"/>
      <point x="149.0" y="217.0" type="curve"/>
      <point x="513.0" y="217.0" type="line"/>
      <point x="513.0" y="405.0"/>
      <point x="435" y="499"/>
    </contour>
    <contour>
      <point x="296.0" y="427.0" type="curve" smooth="yes"/>
      <point x="401" y="427"/>
      <point x="424.0" y="359.0"/>
      <point x="424.0" y="282.0" type="curve"/>
      <point x="150.0" y="282.0" type="line"/>
      <point x="150.0" y="356.0"/>
      <point x="181" y="427"/>
    </contour>
  </outline>
</glyph>
<glyph name="f" format="1">
  <advance width="545"/>
  <unicode hex="0066"/>
  <outline>
    <contour>
      <point x="473.0" y="346.0" type="line"/>
      <point x="67.0" y="346.0" type="line"/>
      <point x="67.0" y="416.0" type="line"/>
      <point x="473.0" y="416.0" type="line"/>
    </contour>
    <contour>
      <point x="272.0" y="499.0" type="curve" smooth="yes"/>
      <point x="272.0" y="0.0" type="line"/>
      <point x="188.0" y="0.0" type="line"/>
      <point x="188.0" y="0.0"/>
      <point x="188.0" y="420.0"/>
      <point x="188.0" y="499.0" type="curve" smooth="yes"/>
      <point x="188.0" y="593.0"/>
      <point x="222.0" y="695.0"/>
      <point x="340.0" y="695.0" type="curve" smooth="yes"/>
      <point x="425.0" y="695.0"/>
      <point x="459.0" y="675.0"/>
      <point x="459.0" y="675.0" type="curve"/>
      <point x="459.0" y="603.0" type="line"/>
      <point x="459.0" y="603.0"/>
      <point x="422.0" y="624.0"/>
      <point x="345.0" y="624.0" type="curve" smooth="yes"/>
      <point x="303.0" y="624.0"/>
      <point x="272.0" y="586.0"/>
    </contour>
  </outline>
</glyph>
<glyph name="g" format="1">
  <advance width="545"/>
  <unicode hex="0067"/>
  <outline>
    <contour>
      <point x="398.0" y="84.0" type="curve" smooth="yes"/>
      <point x="398.0" y="490.0" type="line"/>
      <point x="482.0" y="466.0" type="line"/>
      <point x="482.0" y="466.0"/>
      <point x="482.0" y="163.0"/>
      <point x="482.0" y="84.0" type="curve" smooth="yes"/>
      <point x="482.0" y="-91.0"/>
      <point x="445.0" y="-211.0"/>
      <point x="291.0" y="-211.0" type="curve" smooth="yes"/>
      <point x="167.0" y="-211.0"/>
      <point x="101.0" y="-174.0"/>
      <point x="101.0" y="-174.0" type="curve"/>
      <point x="101.0" y="-97.0" type="line"/>
      <point x="101.0" y="-97.0"/>
      <point x="188.0" y="-134.0"/>
      <point x="279.0" y="-134.0" type="curve" smooth="yes"/>
      <point x="359.0" y="-134.0"/>
      <point x="398.0" y="-75.0"/>
    </contour>
    <contour>
      <point x="482.0" y="407.0" type="line"/>
      <point x="482.0" y="407.0"/>
      <point x="399.0" y="433.0"/>
      <point x="311.0" y="433.0" type="curve" smooth="yes"/>
      <point x="210.0" y="433.0"/>
      <point x="159.0" y="386.0"/>
      <point x="159.0" y="259.0" type="curve" smooth="yes"/>
      <point x="159.0" y="130.0"/>
      <point x="200.0" y="71.0"/>
      <point x="268.0" y="71.0" type="curve" smooth="yes"/>
      <point x="366.0" y="71.0"/>
      <point x="417.0" y="185.0"/>
      <point x="417.0" y="185.0" type="curve"/>
      <point x="426.0" y="124.0" type="line"/>
      <point x="426.0" y="124.0"/>
      <point x="350.0" y="-6.0"/>
      <point x="257.0" y="-6.0" type="curve" smooth="yes"/>
      <point x="157.0" y="-6.0"/>
      <point x="76.0" y="63.0"/>
      <point x="76.0" y="256.0" type="curve" smooth="yes"/>
      <point x="76.0" y="449.0"/>
      <point x="181.0" y="499.0"/>
      <point x="307.0" y="499.0" type="curve" smooth="yes"/>
      <point x="398.0" y="499.0"/>
      <point x="482.0" y="480.0"/>
      <point x="482.0" y="480.0" type="curve"/>
    </contour>
  </outline>
</glyph>
<glyph name="h" format="1">
  <advance width="545"/>
  <unicode hex="0068"/>
  <outline>
    <contour>
      <point x="90" y="690" type="line"/>
      <point x="90" y="0" type="line"/>
      <point x="174" y="0" type="line"/>
      <point x="174" y="690" type="line"/>
    </contour>
    <contour>
      <point x="496" y="237" type="line" smooth="yes"/>
      <point x="496" y="430"/>
      <point x="415" y="499"/>
      <point x="315" y="499" type="curve" smooth="yes"/>
      <point x="222" y="499"/>
      <point x="146" y="369"/>
      <point x="146" y="369" type="curve"/>
      <point x="155" y="308" type="line"/>
      <point x="155" y="308"/>
      <point x="206" y="422"/>
      <point x="304" y="422" type="curve" smooth="yes"/>
      <point x="373" y="422"/>
      <point x="413" y="363"/>
      <point x="413" y="234" type="curve" smooth="yes"/>
      <point x="413" y="0" type="line"/>
      <point x="496" y="0" type="line"/>
    </contour>
  </outline>
</glyph>
<glyph name="i" format="1">
  <advance width="545"/>
  <unicode hex="0069"/>
  <outline>
    <contour>
      <point x="337" y="420" type="line"/>
      <point x="337" y="490" type="line"/>
      <point x="92" y="490" type="line"/>
      <point x="92" y="420" type="line"/>
    </contour>
    <contour>
      <point x="343" y="630" type="curve" smooth="yes"/>
      <point x="343" y="666"/>
      <point x="314" y="695"/>
      <point x="278" y="695" type="curve" smooth="yes"/>
      <point x="241" y="695"/>
      <point x="212" y="666"/>
      <point x="212" y="630" type="curve" smooth="yes"/>
      <point x="212" y="593"/>
      <point x="241" y="564"/>
      <point x="278" y="564" type="curve" smooth="yes"/>
      <point x="314" y="564"/>
      <point x="343" y="593"/>
    </contour>
    <contour>
      <point x="253" y="490" type="line"/>
      <point x="253" y="0" type="line"/>
      <point x="337" y="0" type="line"/>
      <point x="337" y="490" type="line"/>
    </contour>
    <contour>
      <point x="498" y="0" type="line"/>
      <point x="498" y="70" type="line"/>
      <point x="92" y="70" type="line"/>
      <point x="92" y="0" type="line"/>
    </contour>
  </outline>
</glyph>
<glyph name="j" format="1">
  <advance width="545"/>
  <unicode hex="006A"/>
  <outline>
    <contour>
      <point x="391.0" y="420.0" type="line"/>
      <point x="127" y="420" type="line"/>
      <point x="127" y="490" type="line"/>
      <point x="391.0" y="490.0" type="line"/>
    </contour>
    <contour>
      <point x="401.0" y="630.0" type="curve" smooth="yes"/>
      <point x="401.0" y="666.0"/>
      <point x="372.0" y="695.0"/>
      <point x="336.0" y="695.0" type="curve" smooth="yes"/>
      <point x="299.0" y="695.0"/>
      <point x="270.0" y="666.0"/>
      <point x="270.0" y="630.0" type="curve" smooth="yes"/>
      <point x="270.0" y="593.0"/>
      <point x="299.0" y="564.0"/>
      <point x="336.0" y="564.0" type="curve" smooth="yes"/>
      <point x="372.0" y="564.0"/>
      <point x="401.0" y="593.0"/>
    </contour>
    <contour>
      <point x="311.0" y="84.0" type="curve" smooth="yes"/>
      <point x="311.0" y="490.0" type="line"/>
      <point x="395.0" y="490.0" type="line"/>
      <point x="395.0" y="490.0"/>
      <point x="395.0" y="163.0"/>
      <point x="395.0" y="84.0" type="curve" smooth="yes"/>
      <point x="395.0" y="-91.0"/>
      <point x="358.0" y="-211.0"/>
      <point x="205.0" y="-211.0" type="curve" smooth="yes"/>
      <point x="137.0" y="-211.0"/>
      <point x="86" y="-200"/>
      <point x="54" y="-190" type="curve"/>
      <point x="54.0" y="-111.0" type="line"/>
      <point x="88.0" y="-122.0"/>
      <point x="139.0" y="-134.0"/>
      <point x="192.0" y="-134.0" type="curve" smooth="yes"/>
      <point x="272.0" y="-134.0"/>
      <point x="311.0" y="-75.0"/>
    </contour>
  </outline>
</glyph>
<glyph name="k" format="1">
  <advance width="545"/>
  <unicode hex="006B"/>
  <outline>
    <contour>
      <point x="390" y="0" type="line"/>
      <point x="501" y="0" type="line"/>
      <point x="275" y="314" type="line"/>
      <point x="216" y="251" type="line"/>
    </contour>
    <contour>
      <point x="95" y="690" type="line"/>
      <point x="95" y="0" type="line"/>
      <point x="179" y="0" type="line"/>
      <point x="179" y="690" type="line"/>
    </contour>
    <contour>
      <point x="390" y="490" type="line"/>
      <point x="127" y="226" type="line"/>
      <point x="178" y="167" type="line"/>
      <point x="501" y="490" type="line"/>
    </contour>
  </outline>
</glyph>
<glyph name="l" format="1">
  <advance width="545"/>
  <unicode hex="006C"/>
  <outline>
    <contour>
      <point x="497" y="0" type="line"/>
      <point x="91" y="0" type="line"/>
      <point x="91" y="70" type="line"/>
      <point x="497" y="70" type="line"/>
    </contour>
    <contour>
      <point x="252" y="690" type="line"/>
      <point x="336" y="690" type="line"/>
      <point x="336" y="0" type="line"/>
      <point x="252" y="0" type="line"/>
    </contour>
    <contour>
      <point x="336" y="620" type="line"/>
      <point x="91" y="620" type="line"/>
      <point x="91" y="690" type="line"/>
      <point x="336" y="690" type="line"/>
    </contour>
  </outline>
</glyph>
<glyph name="m" format="1">
  <advance width="545"/>
  <unicode hex="006D"/>
  <outline>
    <contour>
      <point x="285.0" y="394.0" type="curve"/>
      <point x="317.0" y="309.0" type="line"/>
      <point x="317.0" y="309.0"/>
      <point x="317" y="422"/>
      <point x="374" y="422" type="curve" smooth="yes"/>
      <point x="421" y="422"/>
      <point x="429.0" y="366.0"/>
      <point x="429.0" y="309.0" type="curve" smooth="yes"/>
      <point x="429.0" y="252.0"/>
      <point x="429.0" y="0.0"/>
      <point x="429.0" y="0.0" type="curve"/>
      <point x="505.0" y="0.0" type="line"/>
      <point x="505.0" y="0.0"/>
      <point x="505.0" y="191.0"/>
      <point x="505.0" y="312.0" type="curve" smooth="yes"/>
      <point x="505.0" y="452.0"/>
      <point x="471" y="499"/>
      <point x="404.0" y="499.0" type="curve" smooth="yes"/>
      <point x="339" y="499"/>
      <point x="285.0" y="394.0"/>
    </contour>
    <contour>
      <point x="96.0" y="394.0" type="curve"/>
      <point x="129.0" y="309.0" type="line"/>
      <point x="129.0" y="309.0"/>
      <point x="126" y="422"/>
      <point x="182" y="422" type="curve" smooth="yes"/>
      <point x="231" y="422"/>
      <point x="241.0" y="366.0"/>
      <point x="241.0" y="309.0" type="curve" smooth="yes"/>
      <point x="241.0" y="252.0"/>
      <point x="241.0" y="0.0"/>
      <point x="241.0" y="0.0" type="curve"/>
      <point x="317.0" y="0.0" type="line"/>
      <point x="317.0" y="0.0"/>
      <point x="317.0" y="191.0"/>
      <point x="317.0" y="312.0" type="curve" smooth="yes"/>
      <point x="317.0" y="462.0"/>
      <point x="286" y="499"/>
      <point x="220" y="499" type="curve" smooth="yes"/>
      <point x="155" y="499"/>
      <point x="96.0" y="394.0"/>
    </contour>
    <contour>
      <point x="45.0" y="490.0" type="line"/>
      <point x="45.0" y="0.0" type="line"/>
      <point x="129.0" y="0.0" type="line"/>
      <point x="129.0" y="490.0" type="line"/>
    </contour>
  </outline>
</glyph>
<glyph name="n" format="1">
  <advance width="545"/>
  <unicode hex="006E"/>
  <outline>
    <contour>
      <point x="153.0" y="0.0" type="line"/>
      <point x="153.0" y="490.0" type="line"/>
      <point x="69.0" y="490.0" type="line"/>
      <point x="69.0" y="0.0" type="line"/>
    </contour>
    <contour>
      <point x="475.0" y="237.0" type="line" smooth="yes"/>
      <point x="475.0" y="430.0"/>
      <point x="394.0" y="499.0"/>
      <point x="294.0" y="499.0" type="curve" smooth="yes"/>
      <point x="201.0" y="499.0"/>
      <point x="125.0" y="369.0"/>
      <point x="125.0" y="369.0" type="curve"/>
      <point x="134.0" y="308.0" type="line"/>
      <point x="134.0" y="308.0"/>
      <point x="185.0" y="422.0"/>
      <point x="283.0" y="422.0" type="curve" smooth="yes"/>
      <point x="352.0" y="422.0"/>
      <point x="392.0" y="363.0"/>
      <point x="392.0" y="234.0" type="curve" smooth="yes"/>
      <point x="392.0" y="0.0" type="line"/>
      <point x="475.0" y="0.0" type="line"/>
    </contour>
  </outline>
</glyph>
<glyph name="o" format="1">
  <advance width="545"/>
  <unicode hex="006F"/>
  <outline>
    <contour>
      <point x="270.0" y="429.0" type="curve" smooth="yes"/>
      <point x="395" y="429"/>
      <point x="412" y="341"/>
      <point x="412" y="250" type="curve" smooth="yes"/>
      <point x="412" y="158"/>
      <point x="395" y="65"/>
      <point x="270.0" y="65.0" type="curve" smooth="yes"/>
      <point x="146" y="65"/>
      <point x="135" y="158"/>
      <point x="135" y="250" type="curve" smooth="yes"/>
      <point x="135" y="341"/>
      <point x="146" y="429"/>
    </contour>
    <contour>
      <point x="268.0" y="499.0" type="curve" smooth="yes"/>
      <point x="100" y="499"/>
      <point x="47" y="389"/>
      <point x="47" y="250" type="curve" smooth="yes"/>
      <point x="47" y="111"/>
      <point x="100" y="-6"/>
      <point x="268.0" y="-6.0" type="curve" smooth="yes"/>
      <point x="436" y="-6"/>
      <point x="499" y="111"/>
      <point x="499" y="250" type="curve" smooth="yes"/>
      <point x="499" y="389"/>
      <point x="436" y="499"/>
    </contour>
  </outline>
</glyph>
<glyph name="p" format="1">
  <advance width="545"/>
  <unicode hex="0070"/>
  <outline>
    <contour>
      <point x="320" y="0" type="move"/>
    </contour>
    <contour>
      <point x="90" y="-202" type="line"/>
      <point x="90" y="490" type="line"/>
      <point x="174" y="490" type="line"/>
      <point x="174" y="-202" type="line"/>
    </contour>
    <contour>
      <point x="90" y="86" type="line"/>
      <point x="90" y="86"/>
      <point x="173" y="60"/>
      <point x="261" y="60" type="curve" smooth="yes"/>
      <point x="362" y="60"/>
      <point x="413" y="107"/>
      <point x="413" y="234" type="curve" smooth="yes"/>
      <point x="413" y="363"/>
      <point x="372" y="422"/>
      <point x="304" y="422" type="curve" smooth="yes"/>
      <point x="206" y="422"/>
      <point x="155" y="308"/>
      <point x="155" y="308" type="curve"/>
      <point x="146" y="369" type="line"/>
      <point x="146" y="369"/>
      <point x="222" y="499"/>
      <point x="315" y="499" type="curve" smooth="yes"/>
      <point x="415" y="499"/>
      <point x="496" y="430"/>
      <point x="496" y="237" type="curve" smooth="yes"/>
      <point x="496" y="44"/>
      <point x="391" y="-6"/>
      <point x="265" y="-6" type="curve" smooth="yes"/>
      <point x="174" y="-6"/>
      <point x="90" y="13"/>
      <point x="90" y="13" type="curve"/>
    </contour>
  </outline>
</glyph>
<glyph name="q" format="1">
  <advance width="545"/>
  <unicode hex="0071"/>
  <outline>
    <contour>
      <point x="388" y="480" type="line"/>
      <point x="388" y="-202" type="line"/>
      <point x="472" y="-202" type="line"/>
      <point x="472" y="480" type="line"/>
    </contour>
    <contour>
      <point x="472" y="407" type="curve"/>
      <point x="472" y="480" type="line"/>
      <point x="472" y="480"/>
      <point x="388" y="499"/>
      <point x="297" y="499" type="curve" smooth="yes"/>
      <point x="171" y="499"/>
      <point x="66" y="449"/>
      <point x="66" y="256" type="curve" smooth="yes"/>
      <point x="66" y="63"/>
      <point x="147" y="-6"/>
      <point x="247" y="-6" type="curve" smooth="yes"/>
      <point x="341" y="-6"/>
      <point x="416" y="124"/>
      <point x="416" y="124" type="curve"/>
      <point x="407" y="185" type="line"/>
      <point x="407" y="185"/>
      <point x="356" y="71"/>
      <point x="258" y="71" type="curve" smooth="yes"/>
      <point x="190" y="71"/>
      <point x="149" y="130"/>
      <point x="149" y="259" type="curve" smooth="yes"/>
      <point x="149" y="386"/>
      <point x="200" y="433"/>
      <point x="301" y="433" type="curve" smooth="yes"/>
      <point x="389" y="433"/>
      <point x="472" y="407"/>
    </contour>
  </outline>
</glyph>
<glyph name="r" format="1">
  <advance width="545"/>
  <unicode hex="0072"/>
  <outline>
    <contour>
      <point x="95" y="490" type="line"/>
      <point x="95" y="0" type="line"/>
      <point x="179" y="0" type="line"/>
      <point x="179" y="490" type="line"/>
    </contour>
    <contour>
      <point x="499" y="307" type="line"/>
      <point x="502" y="428"/>
      <point x="423" y="497"/>
      <point x="323" y="499" type="curve" smooth="yes"/>
      <point x="229" y="502"/>
      <point x="150" y="374"/>
      <point x="150" y="374" type="curve"/>
      <point x="158" y="312" type="line"/>
      <point x="158" y="312"/>
      <point x="223" y="425"/>
      <point x="320" y="422" type="curve" smooth="yes"/>
      <point x="389" y="421"/>
      <point x="415" y="364"/>
      <point x="413" y="307" type="curve"/>
    </contour>
  </outline>
</glyph>
<glyph name="s" format="1">
  <advance width="545"/>
  <unicode hex="0073"/>
  <outline>
    <contour>
      <point x="465" y="463" type="curve"/>
      <point x="465" y="385" type="line"/>
      <point x="465" y="385"/>
      <point x="371" y="422"/>
      <point x="291" y="422" type="curve" smooth="yes"/>
      <point x="218" y="422"/>
      <point x="171" y="411"/>
      <point x="171" y="363" type="curve" smooth="yes"/>
      <point x="171" y="315"/>
      <point x="191" y="294"/>
      <point x="288" y="294" type="curve" smooth="yes"/>
      <point x="411" y="294"/>
      <point x="490" y="260"/>
      <point x="490" y="145" type="curve" smooth="yes"/>
      <point x="490" y="29"/>
      <point x="373" y="-6"/>
      <point x="269" y="-6" type="curve" smooth="yes"/>
      <point x="165" y="-6"/>
      <point x="114" y="14"/>
      <point x="85" y="26" type="curve"/>
      <point x="85" y="107" type="line"/>
      <point x="85" y="107"/>
      <point x="184" y="70"/>
      <point x="271" y="70" type="curve" smooth="yes"/>
      <point x="341" y="70"/>
      <point x="407" y="86"/>
      <point x="407" y="140" type="curve" smooth="yes"/>
      <point x="407" y="194"/>
      <point x="369" y="211"/>
      <point x="265" y="211" type="curve" smooth="yes"/>
      <point x="118" y="211"/>
      <point x="87" y="278"/>
      <point x="87" y="355" type="curve" smooth="yes"/>
      <point x="87" y="433"/>
      <point x="142" y="499"/>
      <point x="281" y="499" type="curve" smooth="yes"/>
      <point x="382" y="499"/>
      <point x="465" y="463"/>
    </contour>
  </outline>
</glyph>
<glyph name="t" format="1">
  <advance width="545"/>
  <unicode hex="0074"/>
  <outline>
    <contour>
      <point x="478" y="81" type="line"/>
      <point x="453" y="76"/>
      <point x="425.0" y="71.0"/>
      <point x="396.0" y="71.0" type="curve" smooth="yes"/>
      <point x="317.0" y="71.0"/>
      <point x="277" y="81"/>
      <point x="277" y="230" type="curve" smooth="yes"/>
      <point x="277.0" y="690.0" type="line"/>
      <point x="193.0" y="690.0" type="line"/>
      <point x="193.0" y="690.0"/>
      <point x="193" y="309"/>
      <point x="193" y="230" type="curve" smooth="yes"/>
      <point x="193" y="65"/>
      <point x="231.0" y="-6.0"/>
      <point x="384.0" y="-6.0" type="curve" smooth="yes"/>
      <point x="420.0" y="-6.0"/>
      <point x="452" y="-2"/>
      <point x="478" y="3" type="curve"/>
    </contour>
    <contour>
      <point x="478.0" y="420.0" type="line"/>
      <point x="478.0" y="490.0" type="line"/>
      <point x="72.0" y="490.0" type="line"/>
      <point x="72.0" y="420.0" type="line"/>
    </contour>
  </outline>
</glyph>
<glyph name="u" format="1">
  <advance width="545"/>
  <unicode hex="0075"/>
  <outline>
    <contour>
      <point x="391" y="490" type="line"/>
      <point x="391" y="0" type="line"/>
      <point x="475" y="0" type="line"/>
      <point x="475" y="490" type="line"/>
    </contour>
    <contour>
      <point x="69" y="256" type="line"/>
      <point x="69" y="63"/>
      <point x="150" y="-6"/>
      <point x="250" y="-6" type="curve" smooth="yes"/>
      <point x="343" y="-6"/>
      <point x="419" y="124"/>
      <point x="419" y="124" type="curve"/>
      <point x="410" y="185" type="line"/>
      <point x="410" y="185"/>
      <point x="359" y="71"/>
      <point x="261" y="71" type="curve" smooth="yes"/>
      <point x="192" y="71"/>
      <point x="152" y="130"/>
      <point x="152" y="259" type="curve" smooth="yes"/>
      <point x="152" y="490" type="line"/>
      <point x="69" y="490" type="line"/>
    </contour>
  </outline>
</glyph>
<glyph name="v" format="1">
  <advance width="545"/>
  <unicode hex="0076"/>
  <outline>
    <contour>
      <point x="437" y="490" type="line"/>
      <point x="274" y="90" type="line"/>
      <point x="283.0" y="90.0" type="line"/>
      <point x="123.0" y="490.0" type="line"/>
      <point x="32.0" y="490.0" type="line"/>
      <point x="229.0" y="0.0" type="line"/>
      <point x="317.0" y="0.0" type="line"/>
      <point x="514.0" y="490.0" type="line"/>
    </contour>
  </outline>
</glyph>
<glyph name="w" format="1">
  <advance width="545"/>
  <unicode hex="0077"/>
  <outline>
    <contour>
      <point x="465" y="490" type="line"/>
      <point x="377" y="89" type="line"/>
      <point x="395" y="89" type="line"/>
      <point x="310" y="323" type="line"/>
      <point x="232" y="323" type="line"/>
      <point x="148" y="94" type="line"/>
      <point x="151" y="94" type="line"/>
      <point x="64" y="490" type="line"/>
      <point x="-13" y="490" type="line"/>
      <point x="102" y="0" type="line"/>
      <point x="172" y="0" type="line"/>
      <point x="172" y="0" type="line"/>
      <point x="264" y="235" type="line"/>
      <point x="355" y="0" type="line"/>
      <point x="355" y="0" type="line"/>
      <point x="425" y="0" type="line"/>
      <point x="540" y="490" type="line"/>
    </contour>
  </outline>
</glyph>
<glyph name="x" format="1">
  <advance width="545"/>
  <unicode hex="0078"/>
  <outline>
    <contour>
      <point x="524" y="490" type="line"/>
      <point x="423" y="490" type="line"/>
      <point x="263" y="285" type="line"/>
      <point x="263" y="285"/>
      <point x="283" y="285"/>
      <point x="283" y="285" type="curve"/>
      <point x="127" y="490" type="line"/>
      <point x="20" y="490" type="line"/>
      <point x="222" y="238" type="line"/>
      <point x="222" y="238"/>
      <point x="228" y="253"/>
      <point x="228" y="253" type="curve"/>
      <point x="26" y="0" type="line"/>
      <point x="127" y="0" type="line"/>
      <point x="278" y="198" type="line"/>
      <point x="278" y="198"/>
      <point x="262" y="198"/>
      <point x="262" y="198" type="curve"/>
      <point x="417" y="0" type="line"/>
      <point x="524" y="0" type="line"/>
      <point x="321" y="254" type="line"/>
      <point x="321" y="254"/>
      <point x="321" y="236"/>
      <point x="321" y="236" type="curve"/>
    </contour>
  </outline>
</glyph>
<glyph name="y" format="1">
  <advance width="545"/>
  <unicode hex="0079"/>
  <outline>
    <contour>
      <point x="441" y="490" type="line"/>
      <point x="284" y="107" type="line"/>
      <point x="129" y="490" type="line"/>
      <point x="44" y="490" type="line"/>
      <point x="241" y="1" type="line"/>
      <point x="240" y="0" type="line"/>
      <point x="240" y="0"/>
      <point x="180" y="-135"/>
      <point x="79" y="-135" type="curve"/>
      <point x="79" y="-211" type="line"/>
      <point x="260" y="-211"/>
      <point x="329" y="0"/>
      <point x="329" y="0" type="curve"/>
      <point x="526" y="490" type="line"/>
    </contour>
  </outline>
</glyph>
<glyph name="z" format="1">
  <advance width="545"/>
  <unicode hex="007A"/>
  <outline>
    <contour>
      <point x="490" y="420" type="line"/>
      <point x="108" y="420" type="line"/>
      <point x="108" y="490" type="line"/>
      <point x="490" y="490" type="line"/>
    </contour>
    <contour>
      <point x="502" y="0" type="line"/>
      <point x="96" y="0" type="line"/>
      <point x="96" y="70" type="line"/>
      <point x="502" y="70" type="line"/>
    </contour>
    <contour>
      <point x="490" y="420" type="line"/>
      <point x="150" y="25" type="line"/>
      <point x="97" y="70" type="line"/>
      <point x="437" y="465" type="line"/>
    </contour>
  </outline>
</glyph>
<glyph name="braceleft" format="1">
  <advance width="545"/>
  <unicode hex="007B"/>
  <outline>
    <contour>
      <point x="296.0" y="485.0" type="curve" smooth="yes"/>
      <point x="296.0" y="585.0"/>
      <point x="316.0" y="624.0"/>
      <point x="436.0" y="624.0" type="curve"/>
      <point x="436.0" y="695.0" type="line"/>
      <point x="317.0" y="695.0"/>
      <point x="214.0" y="676.0"/>
      <point x="214.0" y="485.0" type="curve" smooth="yes"/>
      <point x="214.0" y="304.0"/>
      <point x="196.0" y="285.0"/>
      <point x="54.0" y="285.0" type="curve"/>
      <point x="54.0" y="285.0"/>
      <point x="54.0" y="217.0"/>
      <point x="54.0" y="217.0" type="curve"/>
      <point x="196.0" y="207.0"/>
      <point x="214.0" y="188.0"/>
      <point x="214.0" y="7.0" type="curve" smooth="yes"/>
      <point x="214.0" y="-184.0"/>
      <point x="317.0" y="-203.0"/>
      <point x="436.0" y="-203.0" type="curve"/>
      <point x="436.0" y="-132.0" type="line"/>
      <point x="316.0" y="-132.0"/>
      <point x="296.0" y="-93.0"/>
      <point x="296.0" y="7.0" type="curve" smooth="yes"/>
      <point x="296.0" y="169.0"/>
      <point x="282.0" y="224.0"/>
      <point x="178.0" y="246.0" type="curve"/>
      <point x="282.0" y="271.0"/>
      <point x="296.0" y="343.0"/>
    </contour>
  </outline>
</glyph>
<glyph name="bar" format="1">
  <advance width="545"/>
  <unicode hex="007C"/>
  <outline>
    <contour>
      <point x="232" y="-202" type="curve"/>
      <point x="232" y="690" type="line"/>
      <point x="232" y="690"/>
      <point x="312" y="690"/>
      <point x="312" y="690" type="curve"/>
      <point x="312" y="-202" type="line"/>
      <point x="312" y="-202"/>
      <point x="232" y="-202"/>
    </contour>
  </outline>
</glyph>
<glyph name="braceright" format="1">
  <advance width="545"/>
  <unicode hex="007D"/>
  <outline>
    <contour>
      <point x="194" y="485" type="curve" smooth="yes"/>
      <point x="194" y="343"/>
      <point x="208" y="271"/>
      <point x="312" y="246" type="curve"/>
      <point x="208" y="224"/>
      <point x="194" y="169"/>
      <point x="194" y="7" type="curve" smooth="yes"/>
      <point x="194" y="-93"/>
      <point x="174" y="-132"/>
      <point x="54" y="-132" type="curve"/>
      <point x="54" y="-203" type="line"/>
      <point x="173" y="-203"/>
      <point x="276" y="-184"/>
      <point x="276" y="7" type="curve" smooth="yes"/>
      <point x="276" y="188"/>
      <point x="294" y="207"/>
      <point x="436" y="217" type="curve"/>
      <point x="436" y="217"/>
      <point x="436" y="285"/>
      <point x="436" y="285" type="curve"/>
      <point x="294" y="285"/>
      <point x="276" y="304"/>
      <point x="276" y="485" type="curve" smooth="yes"/>
      <point x="276" y="676"/>
      <point x="173" y="695"/>
      <point x="54" y="695" type="curve"/>
      <point x="54" y="624" type="line"/>
      <point x="174" y="624"/>
      <point x="194" y="585"/>
    </contour>
  </outline>
</glyph>
<glyph name="exclamdown" format="1">
  <advance width="545"/>
  <unicode hex="00A1"/>
  <outline>
    <contour>
      <point x="316" y="-202" type="line"/>
      <point x="309" y="244" type="line"/>
      <point x="235" y="244" type="line"/>
      <point x="228" y="-202" type="line"/>
    </contour>
    <contour>
      <point x="231" y="372" type="line"/>
      <point x="314" y="372" type="line"/>
      <point x="314" y="488" type="line"/>
      <point x="231" y="488" type="line"/>
    </contour>
  </outline>
</glyph>
<glyph name="cent" format="1">
  <advance width="545"/>
  <unicode hex="00A2"/>
  <outline>
    <contour>
      <point x="249" y="-60" type="line"/>
      <point x="249" y="-60"/>
      <point x="308" y="-60"/>
      <point x="308" y="-60" type="curve"/>
      <point x="308" y="695" type="line"/>
      <point x="308" y="695"/>
      <point x="249" y="695"/>
      <point x="249" y="695" type="curve"/>
    </contour>
    <contour>
      <point x="80" y="316" type="curve"/>
      <point x="86" y="175"/>
      <point x="133" y="90"/>
      <point x="274" y="90" type="curve" smooth="yes"/>
      <point x="385" y="90"/>
      <point x="445" y="124"/>
      <point x="445" y="124" type="curve"/>
      <point x="445" y="193" type="line"/>
      <point x="445" y="193"/>
      <point x="379" y="160"/>
      <point x="297" y="160" type="curve" smooth="yes"/>
      <point x="217" y="160"/>
      <point x="165" y="178"/>
      <point x="163" y="316" type="curve" smooth="yes"/>
      <point x="165" y="454"/>
      <point x="218" y="475"/>
      <point x="298" y="475" type="curve" smooth="yes"/>
      <point x="380" y="475"/>
      <point x="446" y="441"/>
      <point x="446" y="441" type="curve"/>
      <point x="446" y="511" type="line"/>
      <point x="446" y="511"/>
      <point x="386" y="545"/>
      <point x="275" y="545" type="curve" smooth="yes"/>
      <point x="134" y="545"/>
      <point x="86" y="457"/>
    </contour>
  </outline>
</glyph>
<glyph name="plusminus" format="1">
  <advance width="545"/>
  <unicode hex="00B1"/>
  <outline>
    <contour>
      <point x="436" y="0" type="line"/>
      <point x="107" y="0" type="line"/>
      <point x="107" y="70" type="line"/>
      <point x="436" y="70" type="line"/>
    </contour>
    <contour>
      <point x="306" y="490" type="line"/>
      <point x="306" y="162" type="line"/>
      <point x="236" y="162" type="line"/>
      <point x="236" y="490" type="line"/>
    </contour>
    <contour>
      <point x="436" y="291" type="line"/>
      <point x="107" y="291" type="line"/>
      <point x="107" y="361" type="line"/>
      <point x="436" y="361" type="line"/>
    </contour>
  </outline>
</glyph>
<glyph name="periodcentered" format="1">
  <advance width="545"/>
  <unicode hex="00B7"/>
  <outline>
    <contour>
      <point x="339" y="369" type="line"/>
      <point x="209" y="369" type="line"/>
      <point x="209" y="203" type="line"/>
      <point x="339" y="203" type="line"/>
    </contour>
  </outline>
</glyph>
<glyph name="questiondown" format="1">
  <advance width="545"/>
  <unicode hex="00BF"/>
  <outline>
    <contour>
      <point x="302" y="200" type="line" smooth="yes"/>
      <point x="302" y="79"/>
      <point x="143" y="58"/>
      <point x="143" y="-24" type="curve" smooth="yes"/>
      <point x="143" y="-142"/>
      <point x="281" y="-134"/>
      <point x="281" y="-134" type="curve"/>
      <point x="372" y="-134"/>
      <point x="465" y="-79"/>
      <point x="465" y="-79" type="curve"/>
      <point x="465" y="-156" type="line"/>
      <point x="465" y="-156"/>
      <point x="405" y="-211"/>
      <point x="281" y="-211" type="curve" smooth="yes"/>
      <point x="178" y="-211"/>
      <point x="60" y="-155"/>
      <point x="60" y="-26" type="curve" smooth="yes"/>
      <point x="60" y="80"/>
      <point x="218" y="112"/>
      <point x="218" y="200" type="curve" smooth="yes"/>
      <point x="218" y="235" type="line"/>
      <point x="302" y="235" type="line"/>
    </contour>
    <contour>
      <point x="218" y="363" type="line"/>
      <point x="302" y="363" type="line"/>
      <point x="302" y="479" type="line"/>
      <point x="218" y="479" type="line"/>
    </contour>
  </outline>
</glyph>
<glyph name="multiply" format="1">
  <advance width="545"/>
  <unicode hex="00D7"/>
  <outline>
    <contour>
      <point x="441" y="406" type="line"/>
      <point x="152" y="117" type="line"/>
      <point x="102" y="166" type="line"/>
      <point x="391" y="455" type="line"/>
    </contour>
    <contour>
      <point x="152" y="455" type="line"/>
      <point x="440" y="166" type="line"/>
      <point x="391" y="117" type="line"/>
      <point x="102" y="405" type="line"/>
    </contour>
  </outline>
</glyph>
<glyph name="minus" format="1">
  <advance width="545"/>
  <unicode hex="2212"/>
  <outline>
    <contour>
      <point x="476" y="251" type="line"/>
      <point x="67" y="251" type="line"/>
      <point x="67" y="321" type="line"/>
      <point x="476" y="321" type="line"/>
    </contour>
  </outline>
</glyph>
